<svg xmlns="http://www.w3.org/2000/svg" viewBox="0 0 600 800" width="600" height="800" role="img" aria-label="pochette-lin-blanche">
  <defs>
    <pattern id="texC" width="8" height="8" patternUnits="userSpaceOnUse">
      <rect width="8" height="8" fill="#FDFBF6"/>
      <path d="M0 0H8M0 4H8" stroke="#000" stroke-opacity="0.05" stroke-width="1"/>
      <path d="M2 0V8M6 0V8" stroke="#fff" stroke-opacity="0.10" stroke-width="1"/>
    </pattern>
    <pattern id="texS" width="8" height="8" patternUnits="userSpaceOnUse">
      <rect width="8" height="8" fill="#E6E1D5"/>
      <path d="M0 0H8M0 4H8" stroke="#000" stroke-opacity="0.05" stroke-width="1"/>
      <path d="M2 0V8M6 0V8" stroke="#fff" stroke-opacity="0.10" stroke-width="1"/>
    </pattern>
    <filter id="ombre" x="-20%" y="-20%" width="140%" height="140%">
      <feDropShadow dx="0" dy="10" stdDeviation="14" flood-color="#000" flood-opacity="0.13"/>
    </filter>
  </defs>
  <rect width="600" height="800" fill="#F4F1EA"/>
  <g filter="url(#ombre)">
    <path d="M120 400 L480 400 L480 640 L120 640 Z" fill="#3A3F49"/>
    <path d="M200 452 L236 356 L272 452 Z" fill="url(#texC)" stroke="#000" stroke-opacity="0.10" stroke-width="2"/>
    <path d="M328 452 L364 356 L400 452 Z" fill="url(#texC)" stroke="#000" stroke-opacity="0.10" stroke-width="2"/>
    <path d="M264 452 L300 330 L336 452 Z" fill="url(#texC)" stroke="#000" stroke-opacity="0.10" stroke-width="2"/>
    <path d="M188 448 L412 448 L412 470 L188 470 Z" fill="url(#texC)" stroke="#000" stroke-opacity="0.10" stroke-width="2"/>
    <path d="M150 462 L450 462 L450 640 L150 640 Z" fill="#2c2f37"/>
    <path d="M150 462 L450 462" stroke="#000" stroke-opacity="0.35" stroke-width="4"/>
    <path d="M196 356 L200 452M404 356 L400 452" stroke="url(#texS)" stroke-opacity="0.4" stroke-width="2"/>
    <path d="M300 330 L300 452" stroke="#b8b4aa" stroke-opacity="0.35" stroke-width="2"/></g>
</svg>
