<svg xmlns="http://www.w3.org/2000/svg" viewBox="0 0 600 800" width="600" height="800" role="img" aria-label="pull-merinos-marine">
  <defs>
    <pattern id="texC" width="9" height="9" patternUnits="userSpaceOnUse">
      <rect width="9" height="9" fill="#2F3D57"/>
      <path d="M4.5 0V9" stroke="#000" stroke-opacity="0.08" stroke-width="2"/>
      <path d="M0 0V9" stroke="#fff" stroke-opacity="0.10" stroke-width="2"/>
    </pattern>
    <pattern id="texS" width="9" height="9" patternUnits="userSpaceOnUse">
      <rect width="9" height="9" fill="#212B3E"/>
      <path d="M4.5 0V9" stroke="#000" stroke-opacity="0.08" stroke-width="2"/>
      <path d="M0 0V9" stroke="#fff" stroke-opacity="0.10" stroke-width="2"/>
    </pattern>
    <filter id="ombre" x="-20%" y="-20%" width="140%" height="140%">
      <feDropShadow dx="0" dy="10" stdDeviation="14" flood-color="#000" flood-opacity="0.13"/>
    </filter>
  </defs>
  <rect width="600" height="800" fill="#F4F1EA"/>
  <g filter="url(#ombre)"><g id="moitie"><path d="M190 196 L112 224 C102 228 96 238 98 248 L122 466 C123 478 135 485 146 483 L206 472 C217 470 223 461 221 451 L204 236 Z" fill="url(#texS)" stroke="#000" stroke-opacity="0.10" stroke-width="2"/><path d="M300 168 C272 168 250 176 236 188 L190 202 C182 206 178 214 180 223 L196 340 L192 596 C192 604 198 610 206 610 L300 610 Z" fill="url(#texC)" stroke="#000" stroke-opacity="0.10" stroke-width="2"/><rect x="192" y="578" width="108" height="32" fill="#1a2232" opacity="0.45"/></g><use href="#moitie" transform="translate(600,0) scale(-1,1)"/><path d="M256 172 C266 200 334 200 344 172 C330 158 270 158 256 172 Z" fill="#F4F1EA"/>
         <path d="M256 172 C266 200 334 200 344 172" stroke="#1a2232" stroke-width="9" fill="none"/></g>
</svg>
